<svg xmlns="http://www.w3.org/2000/svg" xmlns:xlink="http://www.w3.org/1999/xlink" width="500" zoomAndPan="magnify" viewBox="0 0 375 374.999991" height="500" preserveAspectRatio="xMidYMid meet" version="1.0"><defs><clipPath id="41d4562b6e"><path d="M 2.335938 281.875 L 41.269531 281.875 L 41.269531 302.914062 L 2.335938 302.914062 Z M 2.335938 281.875 " clip-rule="nonzero"/></clipPath><clipPath id="c7687b4a41"><path d="M 0.335938 0.875 L 39.269531 0.875 L 39.269531 21.914062 L 0.335938 21.914062 Z M 0.335938 0.875 " clip-rule="nonzero"/></clipPath><clipPath id="0eb1f4d991"><rect x="0" width="40" y="0" height="22"/></clipPath><clipPath id="77471305a7"><path d="M 0.0898438 249.414062 L 21.128906 249.414062 L 21.128906 302.910156 L 0.0898438 302.910156 Z M 0.0898438 249.414062 " clip-rule="nonzero"/></clipPath><clipPath id="66071c6b7e"><path d="M 0.0898438 0.414062 L 21.128906 0.414062 L 21.128906 53.910156 L 0.0898438 53.910156 Z M 0.0898438 0.414062 " clip-rule="nonzero"/></clipPath><clipPath id="b544231413"><rect x="0" width="22" y="0" height="54"/></clipPath><clipPath id="4abbc8d629"><path d="M 27.003906 27.003906 L 276.082031 27.003906 L 276.082031 276 L 27.003906 276 Z M 27.003906 27.003906 " clip-rule="nonzero"/></clipPath><clipPath id="cc45e766cb"><path d="M 53.304688 52.710938 L 250.882812 52.710938 L 250.882812 250.289062 L 53.304688 250.289062 Z M 53.304688 52.710938 " clip-rule="nonzero"/></clipPath><clipPath id="0a23db8dda"><path d="M 152.09375 52.710938 C 97.535156 52.710938 53.304688 96.941406 53.304688 151.5 C 53.304688 206.058594 97.535156 250.289062 152.09375 250.289062 C 206.65625 250.289062 250.882812 206.058594 250.882812 151.5 C 250.882812 96.941406 206.65625 52.710938 152.09375 52.710938 Z M 152.09375 52.710938 " clip-rule="nonzero"/></clipPath><clipPath id="bfc3ffb517"><path d="M 0.304688 0.710938 L 197.882812 0.710938 L 197.882812 198.289062 L 0.304688 198.289062 Z M 0.304688 0.710938 " clip-rule="nonzero"/></clipPath><clipPath id="d41b6a5f81"><path d="M 99.09375 0.710938 C 44.535156 0.710938 0.304688 44.941406 0.304688 99.5 C 0.304688 154.058594 44.535156 198.289062 99.09375 198.289062 C 153.65625 198.289062 197.882812 154.058594 197.882812 99.5 C 197.882812 44.941406 153.65625 0.710938 99.09375 0.710938 Z M 99.09375 0.710938 " clip-rule="nonzero"/></clipPath><clipPath id="2218cae24f"><rect x="0" width="198" y="0" height="199"/></clipPath><clipPath id="195340c893"><path d="M 261.222656 0.078125 L 301.277344 0.078125 L 301.277344 21.378906 L 261.222656 21.378906 Z M 261.222656 0.078125 " clip-rule="nonzero"/></clipPath><clipPath id="056f5cbef5"><path d="M 0.222656 0.078125 L 40.277344 0.078125 L 40.277344 21.378906 L 0.222656 21.378906 Z M 0.222656 0.078125 " clip-rule="nonzero"/></clipPath><clipPath id="837fd487b8"><rect x="0" width="41" y="0" height="22"/></clipPath><clipPath id="0f44f1dcf0"><path d="M 281.605469 0.0898438 L 302.90625 0.0898438 L 302.90625 54.242188 L 281.605469 54.242188 Z M 281.605469 0.0898438 " clip-rule="nonzero"/></clipPath><clipPath id="fb970c9896"><path d="M 0.605469 0.0898438 L 21.90625 0.0898438 L 21.90625 54.242188 L 0.605469 54.242188 Z M 0.605469 0.0898438 " clip-rule="nonzero"/></clipPath><clipPath id="0f964f91ae"><rect x="0" width="22" y="0" height="55"/></clipPath><clipPath id="6386841300"><path d="M 110.121094 110.121094 L 192.878906 110.121094 L 192.878906 192.878906 L 110.121094 192.878906 Z M 110.121094 110.121094 " clip-rule="nonzero"/></clipPath><clipPath id="ef019e1530"><path d="M 151.5 110.121094 C 128.644531 110.121094 110.121094 128.644531 110.121094 151.5 C 110.121094 174.355469 128.644531 192.878906 151.5 192.878906 C 174.355469 192.878906 192.878906 174.355469 192.878906 151.5 C 192.878906 128.644531 174.355469 110.121094 151.5 110.121094 Z M 151.5 110.121094 " clip-rule="nonzero"/></clipPath><clipPath id="9b14d8a3bb"><path d="M 0.121094 0.121094 L 82.878906 0.121094 L 82.878906 82.878906 L 0.121094 82.878906 Z M 0.121094 0.121094 " clip-rule="nonzero"/></clipPath><clipPath id="ff916212b6"><path d="M 41.5 0.121094 C 18.644531 0.121094 0.121094 18.644531 0.121094 41.5 C 0.121094 64.355469 18.644531 82.878906 41.5 82.878906 C 64.355469 82.878906 82.878906 64.355469 82.878906 41.5 C 82.878906 18.644531 64.355469 0.121094 41.5 0.121094 Z M 41.5 0.121094 " clip-rule="nonzero"/></clipPath><clipPath id="0e9a307d97"><rect x="0" width="83" y="0" height="83"/></clipPath><clipPath id="ec451785e6"><path d="M 261.222656 0.0859375 L 286.835938 0.0859375 L 286.835938 10.734375 L 261.222656 10.734375 Z M 261.222656 0.0859375 " clip-rule="nonzero"/></clipPath><clipPath id="f12cff76ec"><path d="M 0.222656 0.0859375 L 25.835938 0.0859375 L 25.835938 10.734375 L 0.222656 10.734375 Z M 0.222656 0.0859375 " clip-rule="nonzero"/></clipPath><clipPath id="e2f920d81f"><rect x="0" width="26" y="0" height="11"/></clipPath><clipPath id="be915f662a"><path d="M 15.359375 292.265625 L 41.269531 292.265625 L 41.269531 302.914062 L 15.359375 302.914062 Z M 15.359375 292.265625 " clip-rule="nonzero"/></clipPath><clipPath id="e58362884c"><path d="M 0.359375 0.265625 L 26.269531 0.265625 L 26.269531 10.914062 L 0.359375 10.914062 Z M 0.359375 0.265625 " clip-rule="nonzero"/></clipPath><clipPath id="7690049b11"><rect x="0" width="27" y="0" height="11"/></clipPath><clipPath id="a836626285"><path d="M 0.0820312 249.417969 L 9.609375 249.417969 L 9.609375 302.914062 L 0.0820312 302.914062 Z M 0.0820312 249.417969 " clip-rule="nonzero"/></clipPath><clipPath id="d5b5d69df8"><path d="M 0.0820312 0.417969 L 9.609375 0.417969 L 9.609375 53.914062 L 0.0820312 53.914062 Z M 0.0820312 0.417969 " clip-rule="nonzero"/></clipPath><clipPath id="353764fb19"><rect x="0" width="10" y="0" height="54"/></clipPath><clipPath id="5196f16985"><path d="M 293.378906 0.0898438 L 302.90625 0.0898438 L 302.90625 54.242188 L 293.378906 54.242188 Z M 293.378906 0.0898438 " clip-rule="nonzero"/></clipPath><clipPath id="441a537103"><path d="M 0.378906 0.0898438 L 9.90625 0.0898438 L 9.90625 54.242188 L 0.378906 54.242188 Z M 0.378906 0.0898438 " clip-rule="nonzero"/></clipPath><clipPath id="06acc48fd5"><rect x="0" width="10" y="0" height="55"/></clipPath><clipPath id="1e17ec2c63"><path d="M 45.328125 46.480469 L 258.820312 46.480469 L 258.820312 256.1875 L 45.328125 256.1875 Z M 45.328125 46.480469 " clip-rule="nonzero"/></clipPath><clipPath id="0b17389171"><path d="M 86.609375 86.609375 L 216.070312 86.609375 L 216.070312 216.070312 L 86.609375 216.070312 Z M 86.609375 86.609375 " clip-rule="nonzero"/></clipPath><clipPath id="5ac893d8cc"><path d="M 75.792969 75.792969 L 227.207031 75.792969 L 227.207031 227.207031 L 75.792969 227.207031 Z M 75.792969 75.792969 " clip-rule="nonzero"/></clipPath><clipPath id="d2ab01e74b"><rect x="0" width="304" y="0" height="304"/></clipPath></defs><g transform="matrix(1, 0, 0, 1, 36, 36)"><g clip-path="url(#d2ab01e74b)"><g clip-path="url(#41d4562b6e)"><g transform="matrix(1, 0, 0, 1, 2, 281)"><g clip-path="url(#0eb1f4d991)"><g clip-path="url(#c7687b4a41)"><path fill="#000000" d="M 0.335938 0.875 L 39.292969 0.875 L 39.292969 21.914062 L 0.335938 21.914062 Z M 0.335938 0.875 " fill-opacity="1" fill-rule="nonzero"/></g></g></g></g><g clip-path="url(#77471305a7)"><g transform="matrix(1, 0, 0, 1, -0.000000000000007105, 249)"><g clip-path="url(#b544231413)"><g clip-path="url(#66071c6b7e)"><path fill="#f78d00" d="M 0.0898438 53.910156 L 0.0898438 0.40625 L 21.128906 0.40625 L 21.128906 53.910156 Z M 0.0898438 53.910156 " fill-opacity="1" fill-rule="nonzero"/></g></g></g></g><g clip-path="url(#4abbc8d629)"><path fill="#000000" d="M 149.675781 27.140625 C 154.28125 27.09375 158.882812 27.230469 163.480469 27.546875 C 165.320312 28.1875 167.21875 28.59375 169.164062 28.761719 C 169.910156 32.363281 170.453125 36.152344 170.785156 40.132812 C 172.332031 40.3125 173.867188 40.585938 175.386719 40.945312 C 175.570312 40.851562 175.75 40.761719 175.929688 40.671875 C 177.777344 37.332031 179.765625 34.085938 181.886719 30.929688 C 186.476562 32.121094 190.988281 33.566406 195.417969 35.257812 C 195.582031 38.828125 195.402344 42.394531 194.878906 45.949219 C 194.894531 46.339844 194.984375 46.699219 195.148438 47.035156 C 196.621094 47.59375 198.066406 48.136719 199.480469 48.65625 C 202.0625 45.804688 204.722656 43.054688 207.464844 40.402344 C 211.742188 42.542969 215.894531 44.886719 219.914062 47.441406 C 219.09375 51.179688 218.054688 54.878906 216.800781 58.539062 C 218.085938 59.789062 219.53125 60.734375 221.132812 61.378906 C 224.152344 59.191406 227.21875 57.074219 230.335938 55.019531 C 235.574219 58.996094 240.175781 63.597656 244.140625 68.824219 C 242.15625 72.070312 240.167969 75.320312 238.183594 78.566406 C 239.171875 79.917969 240.257812 81.179688 241.433594 82.355469 C 244.945312 80.78125 248.554688 79.5625 252.261719 78.703125 C 255.066406 82.464844 257.640625 86.390625 259.976562 90.476562 C 260.15625 90.746094 260.15625 91.019531 259.976562 91.289062 C 257.3125 93.949219 254.652344 96.613281 251.988281 99.273438 C 252.816406 100.515625 253.535156 101.824219 254.15625 103.199219 C 254.472656 103.289062 254.785156 103.378906 255.101562 103.46875 C 258.53125 103 261.957031 102.546875 265.386719 102.117188 C 265.597656 102.15625 265.777344 102.246094 265.929688 102.386719 C 267.8125 106.769531 269.480469 111.238281 270.9375 115.785156 C 267.800781 118.15625 264.550781 120.367188 261.191406 122.417969 C 261.683594 123.921875 262.042969 125.457031 262.277344 127.019531 C 266.234375 127.285156 270.15625 127.734375 274.050781 128.371094 C 274.917969 133.042969 275.59375 137.734375 276.082031 142.445312 C 275.691406 142.859375 275.511719 143.355469 275.539062 143.9375 C 275.851562 145.214844 275.851562 146.480469 275.539062 147.726562 C 272 149.101562 268.390625 150.226562 264.710938 151.109375 C 264.628906 152.894531 264.71875 154.652344 264.980469 156.386719 C 268.550781 157.53125 272.070312 158.75 275.539062 160.042969 C 275.273438 165.035156 274.730469 169.996094 273.914062 174.929688 C 270.695312 175.234375 267.492188 175.59375 264.304688 176.011719 C 264.214844 175.921875 264.125 175.828125 264.035156 175.742188 C 263.453125 175.90625 262.867188 176.085938 262.277344 176.28125 C 261.828125 177.804688 261.507812 179.339844 261.328125 180.882812 C 264.558594 182.96875 267.757812 185.09375 270.9375 187.246094 C 269.554688 191.796875 267.929688 196.261719 266.066406 200.644531 C 265.660156 200.730469 265.253906 200.824219 264.847656 200.914062 C 261.277344 200.445312 257.757812 200.085938 254.289062 199.832031 C 253.722656 201.285156 253.046875 202.679688 252.261719 204.027344 C 255.117188 206.746094 257.824219 209.589844 260.382812 212.550781 C 257.320312 218.191406 253.714844 223.378906 249.554688 228.117188 C 248.902344 228.246094 248.269531 228.15625 247.660156 227.84375 C 244.648438 226.707031 241.671875 225.488281 238.726562 224.191406 C 237.585938 225.421875 236.414062 226.640625 235.207031 227.84375 C 237.199219 231.195312 239.179688 234.53125 241.164062 237.859375 C 237.753906 241.542969 234.097656 244.925781 230.199219 248.011719 C 227.269531 245.980469 224.335938 243.949219 221.402344 241.921875 C 221.0625 241.65625 220.703125 241.5625 220.320312 241.648438 C 219.132812 242.664062 217.957031 243.65625 216.800781 244.628906 C 217.9375 248.128906 219.023438 251.644531 220.050781 255.183594 C 219.980469 255.523438 219.796875 255.796875 219.507812 255.996094 C 215.671875 258.503906 211.703125 260.804688 207.597656 262.898438 C 204.699219 260.222656 201.949219 257.429688 199.34375 254.507812 C 197.875 255.21875 196.386719 255.894531 194.878906 256.539062 C 195.453125 260.34375 195.769531 264.179688 195.824219 268.042969 C 189.679688 270.761719 183.410156 272.429688 177.011719 273.046875 C 175.039062 269.871094 173.324219 266.578125 171.871094 263.167969 C 170.152344 263.320312 168.4375 263.5 166.726562 263.710938 C 166.175781 267.507812 165.453125 271.339844 164.5625 275.214844 C 159.613281 275.769531 154.652344 275.996094 149.675781 275.890625 C 148.828125 272.191406 147.835938 268.535156 146.695312 264.929688 C 145.339844 264.839844 143.984375 264.703125 142.636719 264.523438 C 142.292969 264.542969 141.976562 264.628906 141.6875 264.792969 C 140.332031 268.375 138.839844 271.894531 137.222656 275.347656 C 132.777344 274.757812 128.355469 273.992188 123.960938 273.046875 C 123.375 272.980469 122.921875 272.710938 122.605469 272.238281 C 122.730469 272.125 122.820312 271.988281 122.878906 271.832031 C 122.503906 268.691406 122.277344 265.53125 122.199219 262.355469 C 122.125 261.921875 121.992188 261.519531 121.792969 261.140625 C 120.394531 260.734375 118.996094 260.328125 117.597656 259.921875 C 117.464844 260.011719 117.328125 260.101562 117.191406 260.191406 C 115.140625 263.371094 112.929688 266.441406 110.5625 269.394531 C 106.382812 267.914062 102.277344 266.246094 98.246094 264.386719 C 96.75 263.117188 95.082031 262.082031 93.238281 261.273438 C 93.578125 257.480469 94.253906 253.738281 95.269531 250.042969 C 93.902344 249.0625 92.503906 248.117188 91.074219 247.199219 C 88.175781 249.828125 85.199219 252.351562 82.140625 254.777344 C 78.59375 252.304688 75.121094 249.734375 71.71875 247.0625 C 71.21875 246.609375 70.765625 246.109375 70.367188 245.574219 C 71.828125 242.324219 73.316406 239.074219 74.832031 235.832031 C 75.011719 235.558594 75.011719 235.289062 74.832031 235.019531 C 73.816406 233.820312 72.640625 232.824219 71.3125 232.042969 C 67.972656 233.757812 64.632812 235.46875 61.296875 237.183594 C 57.773438 233.644531 54.570312 229.855469 51.6875 225.816406 C 53.945312 222.75 56.199219 219.679688 58.457031 216.613281 C 57.621094 215.214844 56.71875 213.859375 55.75 212.550781 C 52.160156 213.613281 48.550781 214.605469 44.921875 215.53125 C 42.625 212.199219 40.59375 208.679688 38.832031 204.972656 C 38.554688 204.191406 38.238281 203.425781 37.886719 202.671875 C 37.925781 202.464844 38.015625 202.28125 38.15625 202.132812 C 37.488281 200.753906 36.859375 199.355469 36.261719 197.9375 C 39.070312 195.441406 42 193.097656 45.058594 190.898438 C 44.851562 189.238281 44.445312 187.613281 43.839844 186.027344 C 39.960938 186.070312 36.078125 186.027344 32.199219 185.890625 C 30.800781 181.417969 29.71875 176.859375 28.953125 172.222656 C 28.972656 171.878906 29.0625 171.5625 29.222656 171.273438 C 32.320312 169.71875 35.476562 168.273438 38.695312 166.945312 C 39.074219 166.683594 39.253906 166.324219 39.238281 165.859375 C 39.078125 164.386719 38.804688 162.941406 38.425781 161.53125 C 34.785156 160.921875 31.132812 160.066406 27.464844 158.957031 C 27.21875 156.257812 27.082031 153.550781 27.058594 150.839844 C 27.003906 148.648438 27.1875 146.480469 27.597656 144.34375 C 31.25 143.234375 34.949219 142.332031 38.695312 141.636719 C 38.855469 139.945312 38.855469 138.273438 38.695312 136.628906 C 35.339844 135.160156 32.046875 133.578125 28.816406 131.890625 C 29.371094 125.335938 30.949219 119.066406 33.554688 113.078125 C 36.941406 112.882812 40.324219 112.929688 43.703125 113.214844 C 44.328125 113.1875 44.867188 113.007812 45.328125 112.671875 C 45.824219 111.363281 46.320312 110.054688 46.816406 108.746094 C 44.566406 106.859375 42.3125 104.964844 40.050781 103.0625 C 39.3125 102.417969 38.683594 101.695312 38.15625 100.898438 C 40.027344 96.566406 42.148438 92.371094 44.515625 88.3125 C 48.246094 88.769531 51.945312 89.582031 55.613281 90.746094 C 55.957031 90.679688 56.226562 90.496094 56.425781 90.207031 C 56.992188 89.167969 57.621094 88.175781 58.320312 87.230469 C 58.460938 86.746094 58.371094 86.292969 58.050781 85.875 C 55.796875 83.175781 53.679688 80.378906 51.6875 77.484375 C 54.445312 73.417969 57.558594 69.628906 61.027344 66.117188 C 64.578125 67.914062 68.140625 69.585938 71.71875 71.125 C 72.851562 70.039062 73.933594 68.910156 74.96875 67.742188 C 73.195312 64.257812 71.617188 60.738281 70.230469 57.183594 C 75.09375 52.839844 80.371094 49.140625 86.066406 46.085938 C 89.03125 48.511719 91.917969 51.039062 94.726562 53.664062 C 96.171875 52.851562 97.613281 52.042969 99.058594 51.230469 C 98.269531 47.789062 97.636719 44.3125 97.164062 40.808594 C 97.179688 40.417969 97.269531 40.058594 97.433594 39.726562 C 101.664062 37.65625 105.992188 35.808594 110.425781 34.175781 C 112.945312 37.226562 115.335938 40.386719 117.597656 43.648438 C 119.027344 43.007812 120.515625 42.558594 122.066406 42.296875 C 122.203125 39.617188 122.382812 36.957031 122.605469 34.3125 C 122.515625 34.222656 122.425781 34.132812 122.335938 34.042969 C 122.515625 32.867188 122.695312 31.695312 122.878906 30.523438 C 127.539062 29.460938 132.230469 28.601562 136.953125 27.949219 C 138.757812 31.238281 140.335938 34.667969 141.6875 38.238281 C 143.34375 38.476562 145.011719 38.429688 146.695312 38.101562 C 147.746094 34.4375 148.738281 30.785156 149.675781 27.140625 Z M 145.34375 57.183594 C 145.804688 57.671875 146.027344 58.304688 146.019531 59.078125 C 146.207031 62.421875 146.433594 65.761719 146.695312 69.09375 C 130.902344 69.921875 116.601562 74.976562 103.792969 84.25 C 101.582031 81.136719 99.371094 78.023438 97.164062 74.914062 C 97.234375 74.570312 97.414062 74.300781 97.703125 74.101562 C 112.117188 64.347656 128 58.710938 145.34375 57.183594 Z M 159.148438 57.453125 C 177.105469 59.09375 193.347656 65.183594 207.871094 75.726562 C 205.574219 78.921875 203.183594 82.03125 200.695312 85.0625 C 194.675781 80.902344 188.316406 77.339844 181.613281 74.371094 C 174.109375 71.503906 166.351562 69.835938 158.335938 69.363281 C 158.550781 65.390625 158.824219 61.421875 159.148438 57.453125 Z M 143.988281 72.882812 C 144.984375 72.882812 145.976562 72.882812 146.96875 72.882812 C 147.175781 78.726562 147.539062 84.546875 148.050781 90.34375 C 136.339844 91.027344 125.738281 94.769531 116.246094 101.574219 C 112.90625 96.972656 109.570312 92.371094 106.230469 87.769531 C 106.050781 87.5 106.050781 87.230469 106.230469 86.957031 C 115.011719 80.558594 124.710938 76.363281 135.328125 74.371094 C 138.238281 73.785156 141.125 73.289062 143.988281 72.882812 Z M 158.066406 72.882812 C 166.09375 73.453125 173.855469 75.210938 181.34375 78.160156 C 184.945312 80.050781 188.554688 81.945312 192.171875 83.847656 C 194.335938 85.289062 196.5 86.734375 198.667969 88.175781 C 195.203125 92.984375 191.636719 97.722656 187.976562 102.386719 C 178.808594 95.308594 168.390625 91.425781 156.710938 90.746094 C 157.078125 84.785156 157.53125 78.828125 158.066406 72.882812 Z M 86.335938 83.167969 C 87.210938 83.632812 87.976562 84.265625 88.636719 85.0625 C 90.667969 87.273438 92.695312 89.484375 94.726562 91.695312 C 91.320312 95.191406 88.027344 98.757812 84.847656 102.386719 C 78.699219 111.027344 74.234375 120.503906 71.449219 130.808594 C 67.863281 129.777344 64.253906 128.828125 60.621094 127.964844 C 60.480469 127.8125 60.390625 127.632812 60.351562 127.425781 C 65.03125 110.246094 73.695312 95.496094 86.335938 83.167969 Z M 217.613281 84.523438 C 226.664062 93.128906 233.65625 103.234375 238.589844 114.839844 C 240.613281 119.640625 242.285156 124.554688 243.597656 129.589844 C 239.703125 130.648438 235.820312 131.503906 231.960938 132.160156 C 228.40625 116.890625 221.007812 103.761719 209.765625 92.777344 C 212.339844 89.980469 214.953125 87.226562 217.613281 84.523438 Z M 97.164062 94.265625 C 101.40625 98.421875 105.46875 102.753906 109.34375 107.257812 C 100.835938 115.066406 95.242188 124.628906 92.5625 135.949219 C 86.871094 134.597656 81.1875 133.199219 75.507812 131.753906 C 75.367188 131.605469 75.277344 131.421875 75.238281 131.214844 C 77.054688 124.320312 79.714844 117.78125 83.222656 111.589844 C 87.195312 105.476562 91.839844 99.699219 97.164062 94.265625 Z M 207.058594 95.347656 C 215.527344 103.488281 221.710938 113.054688 225.597656 124.042969 C 226.78125 127.085938 227.640625 130.152344 228.171875 133.246094 C 222.679688 134.640625 217.175781 135.992188 211.660156 137.304688 C 211.40625 137.273438 211.175781 137.183594 210.984375 137.035156 C 209.351562 128.984375 206.011719 121.675781 200.96875 115.109375 C 198.988281 112.722656 196.957031 110.378906 194.878906 108.070312 C 199.042969 103.90625 203.101562 99.667969 207.058594 95.347656 Z M 151.296875 96.972656 C 153.863281 96.609375 155.082031 97.691406 154.953125 100.222656 C 154.109375 101.976562 152.800781 102.472656 151.027344 101.710938 C 149.351562 100.054688 149.441406 98.476562 151.296875 96.972656 Z M 139.386719 98.054688 C 141.957031 97.871094 143.085938 99.046875 142.773438 101.574219 C 141.855469 103.191406 140.546875 103.597656 138.847656 102.792969 C 137.320312 101.007812 137.5 99.429688 139.386719 98.054688 Z M 164.019531 98.328125 C 166.664062 98.746094 167.476562 100.1875 166.457031 102.65625 C 165.101562 104.101562 163.75 104.101562 162.394531 102.65625 C 161.300781 100.550781 161.839844 99.105469 164.019531 98.328125 Z M 127.75 102.117188 C 131.210938 102.011719 132.203125 103.5 130.726562 106.582031 C 127.652344 107.84375 126.253906 106.804688 126.53125 103.46875 C 126.902344 102.964844 127.308594 102.515625 127.75 102.117188 Z M 175.386719 102.65625 C 178.03125 103.074219 178.84375 104.519531 177.824219 106.988281 C 176.472656 108.433594 175.117188 108.433594 173.765625 106.988281 C 172.804688 104.941406 173.347656 103.5 175.386719 102.65625 Z M 150.484375 106.988281 C 169.765625 107.53125 183.707031 116.375 192.304688 133.515625 C 199.792969 153.191406 196.050781 170.382812 181.074219 185.078125 C 166.40625 196.816406 150.34375 199.164062 132.890625 192.117188 C 116.554688 183.726562 107.984375 170.285156 107.179688 151.785156 C 107.753906 133.113281 116.328125 119.582031 132.890625 111.183594 C 138.53125 108.695312 144.398438 107.296875 150.484375 106.988281 Z M 117.734375 108.613281 C 120.289062 108.414062 121.414062 109.585938 121.117188 112.132812 C 120.0625 113.878906 118.667969 114.195312 116.921875 113.078125 C 115.664062 111.285156 115.933594 109.796875 117.734375 108.613281 Z M 184.589844 109.695312 C 188.058594 109.59375 189.050781 111.082031 187.570312 114.160156 C 186.152344 115.125 184.84375 114.988281 183.644531 113.753906 C 182.886719 112.117188 183.203125 110.765625 184.589844 109.695312 Z M 109.074219 117.273438 C 112.539062 117.171875 113.535156 118.660156 112.050781 121.742188 C 110.632812 122.703125 109.324219 122.566406 108.125 121.335938 C 107.367188 119.699219 107.683594 118.34375 109.074219 117.273438 Z M 193.523438 118.355469 C 196.324219 118.902344 197.089844 120.433594 195.824219 122.957031 C 194.640625 123.972656 193.421875 124.015625 192.171875 123.09375 C 190.800781 120.988281 191.253906 119.410156 193.523438 118.355469 Z M 103.386719 127.558594 C 106.074219 127.699219 107.023438 129.054688 106.230469 131.621094 C 104.617188 133.316406 103.085938 133.226562 101.628906 131.347656 C 101.140625 129.535156 101.726562 128.273438 103.386719 127.558594 Z M 198.9375 129.183594 C 201.882812 129.105469 202.917969 130.457031 202.050781 133.246094 C 200.292969 135.121094 198.761719 134.941406 197.449219 132.703125 C 197.0625 131.132812 197.558594 129.960938 198.9375 129.183594 Z M 99.328125 139.199219 C 102.164062 139.027344 103.292969 140.289062 102.710938 142.988281 C 100.855469 145.132812 99.234375 144.953125 97.839844 142.445312 C 97.679688 141.050781 98.175781 139.96875 99.328125 139.199219 Z M 57.644531 140.824219 C 61.609375 141.320312 65.578125 141.769531 69.554688 142.175781 C 67.558594 157.722656 69.996094 172.613281 76.863281 186.839844 C 73.527344 188.6875 70.097656 190.398438 66.578125 191.980469 C 60.886719 180.5 57.773438 168.320312 57.238281 155.441406 C 57.066406 150.558594 57.203125 145.6875 57.644531 140.824219 Z M 202.183594 140.824219 C 204.753906 140.640625 205.878906 141.8125 205.570312 144.34375 C 204.855469 145.757812 203.726562 146.253906 202.183594 145.832031 C 200.769531 145.117188 200.273438 143.992188 200.695312 142.445312 C 201.066406 141.765625 201.558594 141.222656 202.183594 140.824219 Z M 73.074219 142.71875 C 79.058594 143.222656 85.011719 143.945312 90.9375 144.882812 C 89.332031 156.230469 91.042969 167.101562 96.082031 177.5 C 90.871094 180.261719 85.59375 182.925781 80.246094 185.484375 C 73.609375 171.929688 71.21875 157.671875 73.074219 142.71875 Z M 244.410156 142.71875 C 244.769531 142.71875 245.132812 142.71875 245.492188 142.71875 C 247.167969 160.679688 244.011719 177.734375 236.019531 193.875 C 232.542969 192.09375 229.113281 190.242188 225.734375 188.328125 C 227.550781 184.050781 229.308594 179.765625 231.011719 175.46875 C 234 165.09375 234.945312 154.535156 233.855469 143.800781 C 237.425781 143.597656 240.945312 143.234375 244.410156 142.71875 Z M 228.171875 144.34375 C 228.894531 144.34375 229.613281 144.34375 230.335938 144.34375 C 230.917969 151.78125 230.601562 159.179688 229.386719 166.539062 C 227.777344 173.578125 225.386719 180.34375 222.214844 186.839844 C 216.882812 184.171875 211.5625 181.511719 206.246094 178.851562 C 209.941406 172.363281 212.0625 165.375 212.605469 157.875 C 212.828125 153.984375 212.78125 150.105469 212.472656 146.238281 C 217.734375 145.566406 222.972656 144.933594 228.171875 144.34375 Z M 98.789062 151.109375 C 101.617188 151.359375 102.519531 152.800781 101.492188 155.441406 C 100.140625 156.882812 98.789062 156.882812 97.433594 155.441406 C 96.40625 153.492188 96.855469 152.050781 98.789062 151.109375 Z M 203.269531 152.734375 C 205.375 152.988281 206.324219 154.160156 206.109375 156.25 C 204.621094 158.683594 202.996094 158.773438 201.238281 156.523438 C 200.828125 154.640625 201.507812 153.378906 203.269531 152.734375 Z M 100.410156 163.289062 C 102.992188 163.117188 104.121094 164.289062 103.792969 166.808594 C 102.742188 168.558594 101.34375 168.871094 99.597656 167.753906 C 98.339844 165.960938 98.613281 164.472656 100.410156 163.289062 Z M 201.101562 164.644531 C 203.472656 165.058594 204.332031 166.410156 203.675781 168.703125 C 201.335938 170.800781 199.667969 170.351562 198.667969 167.347656 C 198.929688 165.914062 199.742188 165.011719 201.101562 164.644531 Z M 105.011719 174.386719 C 107.714844 174.246094 108.84375 175.511719 108.394531 178.175781 C 106.941406 179.855469 105.410156 179.945312 103.792969 178.445312 C 103.109375 176.753906 103.515625 175.398438 105.011719 174.386719 Z M 195.6875 175.742188 C 198.378906 175.882812 199.324219 177.234375 198.53125 179.800781 C 196.789062 181.648438 195.257812 181.464844 193.929688 179.257812 C 193.625 177.628906 194.214844 176.453125 195.6875 175.742188 Z M 112.320312 184.132812 C 115.238281 184.277344 116.183594 185.71875 115.164062 188.460938 C 113.628906 189.929688 112.1875 189.839844 110.832031 188.191406 C 110.105469 186.394531 110.601562 185.039062 112.320312 184.132812 Z M 100.410156 185.214844 C 105.132812 192.691406 111.269531 198.78125 118.816406 203.484375 C 121.207031 204.757812 123.554688 206.066406 125.855469 207.410156 C 123.488281 212.773438 121.050781 218.097656 118.546875 223.378906 C 110.867188 219.902344 103.921875 215.347656 97.703125 209.710938 C 97.792969 209.621094 97.886719 209.527344 97.976562 209.441406 C 93.359375 205.140625 89.296875 200.40625 85.792969 195.230469 C 90.683594 191.882812 95.558594 188.546875 100.410156 185.214844 Z M 187.839844 185.484375 C 191.308594 185.382812 192.300781 186.871094 190.816406 189.949219 C 187.746094 191.210938 186.34375 190.171875 186.621094 186.839844 C 186.992188 186.335938 187.398438 185.882812 187.839844 185.484375 Z M 201.914062 186.566406 C 206.691406 189.808594 211.476562 193.054688 216.261719 196.3125 C 216.535156 196.445312 216.582031 196.628906 216.394531 196.851562 C 207.953125 209.273438 196.808594 218.253906 182.96875 223.785156 C 180.621094 218.460938 178.277344 213.140625 175.929688 207.816406 C 186.722656 203.363281 195.386719 196.28125 201.914062 186.566406 Z M 121.253906 192.25 C 123.914062 191.976562 125.039062 193.148438 124.636719 195.769531 C 123.488281 197.535156 122.042969 197.804688 120.304688 196.582031 C 119.261719 194.816406 119.574219 193.375 121.253906 192.25 Z M 178.636719 193.0625 C 181.210938 192.886719 182.335938 194.058594 182.019531 196.582031 C 181.308594 198 180.179688 198.492188 178.636719 198.070312 C 177.222656 197.359375 176.726562 196.230469 177.148438 194.6875 C 177.515625 194.003906 178.011719 193.464844 178.636719 193.0625 Z M 82.546875 197.125 C 87.042969 203.558594 92.183594 209.472656 97.976562 214.851562 C 103.882812 219.582031 110.289062 223.550781 117.191406 226.761719 C 115.558594 230.347656 113.890625 233.910156 112.1875 237.453125 C 95.960938 229.800781 82.835938 218.566406 72.800781 203.753906 C 76.097656 201.582031 79.347656 199.371094 82.546875 197.125 Z M 132.351562 197.664062 C 135.039062 197.804688 135.984375 199.160156 135.191406 201.726562 C 133.5625 203.507812 132.027344 203.417969 130.589844 201.453125 C 130.097656 199.648438 130.683594 198.386719 132.351562 197.664062 Z M 168.082031 198.207031 C 170.699219 198.429688 171.644531 199.78125 170.921875 202.265625 C 168.714844 204.257812 167.046875 203.851562 165.914062 201.046875 C 166.089844 199.660156 166.8125 198.710938 168.082031 198.207031 Z M 219.507812 198.476562 C 222.75 200.726562 226 202.980469 229.253906 205.242188 C 218.976562 219.921875 205.667969 230.929688 189.328125 238.265625 C 187.597656 234.628906 186.019531 230.929688 184.589844 227.167969 C 188.992188 225.328125 193.234375 223.207031 197.3125 220.808594 C 206.21875 214.835938 213.617188 207.394531 219.507812 198.476562 Z M 144.261719 200.644531 C 146.585938 200.871094 147.53125 202.132812 147.101562 204.433594 C 145.386719 206.644531 143.765625 206.554688 142.230469 204.160156 C 141.949219 202.417969 142.625 201.246094 144.261719 200.644531 Z M 156.171875 200.914062 C 158.601562 200.863281 159.636719 202.035156 159.285156 204.433594 C 158.570312 205.847656 157.441406 206.34375 155.898438 205.921875 C 154.484375 205.207031 153.988281 204.082031 154.410156 202.539062 C 154.800781 201.742188 155.386719 201.199219 156.171875 200.914062 Z M 133.976562 210.386719 C 145.113281 213.875 156.300781 213.964844 167.539062 210.65625 C 169.332031 216.382812 170.953125 222.160156 172.410156 227.980469 C 161.242188 231.042969 149.960938 231.539062 138.578125 229.46875 C 135.339844 229 132.179688 228.234375 129.101562 227.167969 C 130.894531 221.617188 132.515625 216.023438 133.976562 210.386719 Z M 128.019531 230.6875 C 142.898438 235.441406 157.875 235.710938 172.953125 231.5 C 173.207031 231.53125 173.433594 231.617188 173.628906 231.769531 C 174.613281 235.355469 175.652344 238.921875 176.742188 242.460938 C 159.414062 247.351562 142.089844 247.308594 124.773438 242.328125 C 125.855469 238.449219 126.9375 234.566406 128.019531 230.6875 Z M 128.019531 230.6875 " fill-opacity="0.985" fill-rule="evenodd"/></g><g clip-path="url(#cc45e766cb)"><g clip-path="url(#0a23db8dda)"><g transform="matrix(1, 0, 0, 1, 53, 52)"><g clip-path="url(#2218cae24f)"><g clip-path="url(#bfc3ffb517)"><g clip-path="url(#d41b6a5f81)"><path fill="#000000" d="M 0.304688 0.710938 L 197.882812 0.710938 L 197.882812 198.289062 L 0.304688 198.289062 Z M 0.304688 0.710938 " fill-opacity="1" fill-rule="nonzero"/></g></g></g></g></g></g><g clip-path="url(#195340c893)"><g transform="matrix(1, 0, 0, 1, 261, 0)"><g clip-path="url(#837fd487b8)"><g clip-path="url(#056f5cbef5)"><path fill="#000000" d="M 40.277344 21.378906 L 0.257812 21.378906 L 0.257812 0.078125 L 40.277344 0.078125 Z M 40.277344 21.378906 " fill-opacity="1" fill-rule="nonzero"/></g></g></g></g><g clip-path="url(#0f44f1dcf0)"><g transform="matrix(1, 0, 0, 1, 281, 0)"><g clip-path="url(#0f964f91ae)"><g clip-path="url(#fb970c9896)"><path fill="#f78d00" d="M 21.90625 0.0898438 L 21.90625 54.25 L 0.605469 54.25 L 0.605469 0.0898438 Z M 21.90625 0.0898438 " fill-opacity="1" fill-rule="nonzero"/></g></g></g></g><g clip-path="url(#6386841300)"><g clip-path="url(#ef019e1530)"><g transform="matrix(1, 0, 0, 1, 110, 110)"><g clip-path="url(#0e9a307d97)"><g clip-path="url(#9b14d8a3bb)"><g clip-path="url(#ff916212b6)"><path fill="#ffffff" d="M 0.121094 0.121094 L 82.878906 0.121094 L 82.878906 82.878906 L 0.121094 82.878906 Z M 0.121094 0.121094 " fill-opacity="1" fill-rule="nonzero"/></g></g></g></g></g></g><g clip-path="url(#ec451785e6)"><g transform="matrix(1, 0, 0, 1, 261, 0)"><g clip-path="url(#e2f920d81f)"><g clip-path="url(#f12cff76ec)"><path fill="#f78d00" d="M 0.222656 0.0859375 L 25.847656 0.0859375 L 25.847656 10.734375 L 0.222656 10.734375 Z M 0.222656 0.0859375 " fill-opacity="1" fill-rule="nonzero"/></g></g></g></g><g clip-path="url(#be915f662a)"><g transform="matrix(1, 0, 0, 1, 15, 292)"><g clip-path="url(#7690049b11)"><g clip-path="url(#e58362884c)"><path fill="#f78d00" d="M 0.359375 0.265625 L 26.277344 0.265625 L 26.277344 10.914062 L 0.359375 10.914062 Z M 0.359375 0.265625 " fill-opacity="1" fill-rule="nonzero"/></g></g></g></g><g clip-path="url(#a836626285)"><g transform="matrix(1, 0, 0, 1, -0.000000000000007105, 249)"><g clip-path="url(#353764fb19)"><g clip-path="url(#d5b5d69df8)"><path fill="#000000" d="M 9.609375 0.417969 L 9.609375 53.898438 L 0.0820312 53.898438 L 0.0820312 0.417969 Z M 9.609375 0.417969 " fill-opacity="1" fill-rule="nonzero"/></g></g></g></g><g clip-path="url(#5196f16985)"><g transform="matrix(1, 0, 0, 1, 293, 0)"><g clip-path="url(#06acc48fd5)"><g clip-path="url(#441a537103)"><path fill="#000000" d="M 9.90625 0.0898438 L 9.90625 54.238281 L 0.378906 54.238281 L 0.378906 0.0898438 Z M 9.90625 0.0898438 " fill-opacity="1" fill-rule="nonzero"/></g></g></g></g><g clip-path="url(#1e17ec2c63)"><path fill="#f78d00" d="M 258.03125 164.757812 C 258.5625 160.414062 258.84375 155.992188 258.84375 151.5 C 258.84375 147.003906 258.5625 142.585938 258.03125 138.242188 L 242.074219 133.539062 C 240.675781 126.382812 238.429688 119.546875 235.464844 113.105469 L 245.585938 99.960938 C 241.28125 92.160156 236.03125 84.949219 229.96875 78.507812 L 214.332031 84.058594 L 214.3125 84.058594 C 209.0625 79.207031 203.246094 74.957031 196.976562 71.445312 L 197.429688 54.84375 C 189.496094 51.105469 181.035156 48.328125 172.199219 46.648438 L 162.8125 60.339844 C 159.300781 59.925781 155.710938 59.714844 152.085938 59.714844 C 148.441406 59.714844 144.871094 59.925781 141.339844 60.339844 L 131.953125 46.648438 C 123.117188 48.328125 114.65625 51.105469 106.722656 54.84375 L 107.175781 71.445312 C 100.90625 74.957031 95.089844 79.207031 89.839844 84.058594 L 89.820312 84.058594 L 74.203125 78.507812 C 68.140625 84.949219 62.890625 92.160156 58.566406 99.960938 L 68.6875 113.105469 C 65.722656 119.546875 63.476562 126.382812 62.078125 133.539062 L 46.140625 138.242188 C 45.609375 142.585938 45.328125 147.003906 45.328125 151.5 C 45.328125 155.996094 45.609375 160.414062 46.140625 164.757812 L 62.078125 169.460938 C 63.476562 176.617188 65.722656 183.453125 68.6875 189.894531 L 58.566406 203.039062 C 62.890625 210.835938 68.140625 218.050781 74.203125 224.492188 L 89.839844 218.9375 C 95.089844 223.792969 100.90625 228.023438 107.175781 231.535156 L 106.722656 248.152344 C 114.65625 251.894531 123.113281 254.667969 131.953125 256.351562 L 141.359375 242.640625 C 144.871094 243.054688 148.460938 243.261719 152.085938 243.261719 C 155.710938 243.261719 159.300781 243.054688 162.8125 242.640625 L 172.199219 256.351562 C 181.035156 254.667969 189.496094 251.894531 197.429688 248.15625 L 196.976562 231.554688 C 203.246094 228.023438 209.0625 223.792969 214.3125 218.9375 L 229.96875 224.492188 C 236.03125 218.050781 241.28125 210.835938 245.585938 203.039062 L 235.464844 189.894531 C 238.429688 183.453125 240.675781 176.617188 242.074219 169.460938 Z M 152.105469 214.707031 C 117.183594 214.707031 88.875 186.398438 88.875 151.480469 C 88.875 116.597656 117.1875 88.289062 152.105469 88.289062 C 186.984375 88.289062 215.292969 116.597656 215.292969 151.480469 C 215.292969 186.398438 186.984375 214.707031 152.105469 214.707031 Z M 152.105469 214.707031 " fill-opacity="1" fill-rule="nonzero"/></g><g clip-path="url(#0b17389171)"><path fill="#f78d00" d="M 151.5 86.609375 C 115.683594 86.609375 86.609375 115.683594 86.609375 151.5 C 86.609375 187.316406 115.683594 216.390625 151.5 216.390625 C 187.316406 216.390625 216.390625 187.316406 216.390625 151.5 C 216.390625 115.683594 187.316406 86.609375 151.5 86.609375 Z M 151.5 90.214844 C 185.367188 90.214844 212.785156 117.632812 212.785156 151.5 C 212.785156 185.367188 185.367188 212.785156 151.5 212.785156 C 117.632812 212.785156 90.214844 185.367188 90.214844 151.5 C 90.214844 117.632812 117.632812 90.214844 151.5 90.214844 Z M 151.5 90.214844 " fill-opacity="1" fill-rule="nonzero"/></g><g clip-path="url(#5ac893d8cc)"><path fill="#1d1d1b" d="M 148.492188 227.183594 C 146.472656 227.101562 144.429688 226.945312 142.421875 226.707031 L 142.691406 224.46875 C 144.628906 224.699219 146.613281 224.859375 148.582031 224.933594 Z M 154.59375 227.183594 L 154.5 224.945312 C 156.46875 224.863281 158.453125 224.707031 160.398438 224.476562 L 160.667969 226.714844 C 158.660156 226.9375 156.617188 227.101562 154.59375 227.183594 Z M 136.402344 225.753906 C 134.417969 225.351562 132.429688 224.863281 130.480469 224.304688 L 131.109375 222.148438 C 132.988281 222.695312 134.917969 223.171875 136.851562 223.558594 Z M 166.6875 225.753906 L 166.238281 223.558594 C 168.164062 223.164062 170.09375 222.695312 171.980469 222.140625 L 172.601562 224.289062 C 170.660156 224.828125 168.671875 225.320312 166.6875 225.753906 Z M 124.699219 222.394531 C 122.8125 221.648438 120.917969 220.90625 119.089844 220 L 120.046875 217.980469 C 121.828125 218.824219 123.65625 219.605469 125.492188 220.300781 Z M 178.402344 222.359375 L 177.613281 220.269531 C 179.441406 219.578125 181.269531 218.777344 183.042969 217.949219 L 184.003906 219.972656 C 182.15625 220.808594 180.269531 221.613281 178.382812 222.328125 Z M 113.714844 217.136719 C 111.960938 216.128906 110.230469 215.035156 108.558594 213.878906 L 109.828125 212.035156 C 111.453125 213.15625 113.132812 214.222656 114.832031 215.199219 Z M 189.398438 217.136719 L 188.28125 215.207031 C 189.972656 214.222656 191.660156 213.15625 193.269531 212.035156 L 194.542969 213.878906 C 192.898438 214.996094 191.128906 216.09375 189.375 217.101562 Z M 103.660156 210.214844 C 102.09375 208.941406 100.554688 207.574219 99.09375 206.171875 L 100.644531 204.5625 C 102.0625 205.917969 103.554688 207.238281 105.078125 208.484375 Z M 199.394531 210.171875 L 197.976562 208.441406 C 199.46875 207.195312 200.960938 205.875 202.398438 204.515625 L 203.949219 206.128906 C 202.496094 207.53125 200.960938 208.894531 199.394531 210.171875 Z M 94.871094 201.78125 C 93.523438 200.289062 92.226562 198.683594 91.007812 197.066406 L 92.800781 195.722656 C 93.976562 197.289062 95.238281 198.828125 96.527344 200.296875 Z M 208.171875 201.734375 L 206.5 200.242188 C 207.808594 198.75 209.066406 197.261719 210.230469 195.664062 L 212.019531 197.007812 C 210.796875 198.632812 209.515625 200.222656 208.171875 201.734375 Z M 87.539062 192.039062 C 86.453125 190.332031 85.429688 188.554688 84.484375 186.765625 L 86.460938 185.722656 C 87.375 187.460938 88.375 189.183594 89.441406 190.835938 Z M 215.496094 191.980469 L 213.609375 190.777344 C 214.660156 189.121094 215.652344 187.398438 216.59375 185.652344 L 218.578125 186.699219 C 217.609375 188.511719 216.578125 190.292969 215.496094 192 Z M 81.863281 181.28125 C 81.066406 179.425781 80.335938 177.554688 79.695312 175.59375 L 81.820312 174.882812 C 82.4375 176.75 83.148438 178.613281 83.921875 180.402344 Z M 221.171875 181.207031 L 219.113281 180.335938 C 219.859375 178.523438 220.605469 176.660156 221.210938 174.800781 L 223.335938 175.503906 C 222.730469 177.425781 221.984375 179.34375 221.171875 181.207031 Z M 78.03125 169.738281 C 77.546875 167.78125 77.136719 165.777344 76.808594 163.769531 L 79.046875 163.410156 C 79.359375 165.351562 79.789062 167.304688 80.230469 169.207031 Z M 225.058594 169.648438 L 222.882812 169.117188 C 223.351562 167.207031 223.746094 165.261719 224.058594 163.320312 L 226.296875 163.671875 C 225.917969 165.671875 225.507812 167.6875 225.027344 169.648438 Z M 76.039062 157.71875 C 75.882812 155.707031 75.792969 153.65625 75.792969 151.625 L 78.03125 151.625 C 78.03125 153.597656 78.113281 155.578125 78.269531 157.535156 Z M 226.96875 157.625 L 224.730469 157.445312 C 224.886719 155.496094 224.960938 153.507812 224.960938 151.539062 L 224.960938 151.359375 L 227.199219 151.359375 L 227.199219 151.539062 C 227.207031 153.566406 227.125 155.640625 226.96875 157.625 Z M 78.261719 145.71875 L 76.023438 145.539062 C 76.179688 143.519531 76.417969 141.484375 76.769531 139.492188 L 79.007812 139.84375 C 78.648438 141.78125 78.410156 143.757812 78.261719 145.71875 Z M 224.722656 145.449219 C 224.558594 143.488281 224.320312 141.511719 223.976562 139.582031 L 226.214844 139.214844 C 226.542969 141.207031 226.796875 143.242188 226.960938 145.265625 Z M 80.125 134.046875 L 77.957031 133.515625 C 78.433594 131.546875 79 129.578125 79.632812 127.652344 L 81.761719 128.398438 C 81.140625 130.226562 80.589844 132.136719 80.125 134.046875 Z M 222.8125 133.785156 C 222.335938 131.875 221.777344 129.964844 221.15625 128.109375 L 223.277344 127.363281 C 223.917969 129.28125 224.492188 131.25 224.984375 133.21875 Z M 83.855469 122.820312 L 81.796875 121.949219 C 82.585938 120.082031 83.46875 118.21875 84.40625 116.4375 L 86.382812 117.472656 C 85.488281 119.21875 84.625 121.015625 83.855469 122.820312 Z M 219.046875 122.589844 C 218.300781 120.785156 217.414062 118.988281 216.496094 117.257812 L 218.472656 116.203125 C 219.421875 117.996094 220.308594 119.84375 221.105469 121.703125 Z M 89.34375 112.378906 L 87.449219 111.183594 C 88.53125 109.46875 89.6875 107.785156 90.910156 106.164062 L 92.703125 107.507812 C 91.523438 109.042969 90.398438 110.683594 89.34375 112.378906 Z M 213.527344 112.167969 C 212.476562 110.519531 211.34375 108.878906 210.148438 107.3125 L 211.9375 105.964844 C 213.164062 107.582031 214.332031 109.269531 215.414062 110.96875 Z M 96.425781 102.921875 L 94.753906 101.429688 C 96.097656 99.9375 97.511719 98.445312 98.96875 97.027344 L 100.519531 98.640625 C 99.125 99.980469 97.746094 101.421875 96.4375 102.890625 Z M 206.398438 102.683594 C 205.089844 101.191406 203.710938 99.78125 202.292969 98.421875 L 203.839844 96.804688 C 205.332031 98.207031 206.726562 99.683594 208.066406 101.191406 Z M 104.957031 94.6875 L 103.539062 92.984375 C 105.105469 91.703125 106.738281 90.472656 108.402344 89.316406 L 109.679688 91.15625 C 108.066406 92.238281 106.476562 93.441406 104.957031 94.6875 Z M 197.855469 94.535156 C 196.328125 93.292969 194.738281 92.097656 193.121094 90.988281 L 194.386719 89.144531 C 196.050781 90.285156 197.691406 91.515625 199.265625 92.800781 Z M 114.667969 87.949219 L 113.550781 86.019531 C 115.324219 84.996094 117.105469 84.035156 118.933594 83.167969 L 119.898438 85.191406 C 118.128906 86.042969 116.367188 86.964844 114.667969 87.949219 Z M 188.117188 87.824219 C 186.414062 86.847656 184.648438 85.921875 182.894531 85.085938 L 183.855469 83.058594 C 185.683594 83.921875 187.496094 84.878906 189.257812 85.890625 Z M 125.328125 82.863281 L 124.527344 80.773438 C 126.421875 80.03125 128.371094 79.402344 130.308594 78.835938 L 130.9375 80.984375 C 129.054688 81.527344 127.167969 82.164062 125.328125 82.863281 Z M 177.425781 82.773438 C 175.59375 82.082031 173.699219 81.453125 171.808594 80.910156 L 172.429688 78.761719 C 174.375 79.320312 176.324219 79.960938 178.21875 80.679688 Z M 136.679688 79.558594 L 136.210938 77.375 C 138.1875 76.964844 140.214844 76.628906 142.222656 76.390625 L 142.496094 78.628906 C 140.566406 78.851562 138.605469 79.171875 136.679688 79.558594 Z M 166.042969 79.515625 C 164.121094 79.128906 162.160156 78.8125 160.203125 78.582031 L 160.464844 76.34375 C 162.480469 76.582031 164.5 76.902344 166.484375 77.300781 Z M 148.410156 78.136719 L 148.316406 75.898438 C 150.382812 75.832031 152.402344 75.832031 154.417969 75.882812 L 154.328125 78.121094 C 152.378906 78.066406 150.382812 78.066406 148.410156 78.136719 Z M 148.410156 78.136719 " fill-opacity="1" fill-rule="nonzero"/></g></g></g></svg>