<svg xmlns="http://www.w3.org/2000/svg" xmlns:xlink="http://www.w3.org/1999/xlink" width="500" zoomAndPan="magnify" viewBox="0 0 375 374.999991" height="500" preserveAspectRatio="xMidYMid meet" version="1.0"><defs><clipPath id="37a2abf879"><path d="M 316.398438 296.191406 L 337.5 296.191406 L 337.5 337.492188 L 316.398438 337.492188 Z M 316.398438 296.191406 " clip-rule="nonzero"/></clipPath><clipPath id="8848d02cae"><path d="M 0.398438 0.191406 L 21.5 0.191406 L 21.5 41.492188 L 0.398438 41.492188 Z M 0.398438 0.191406 " clip-rule="nonzero"/></clipPath><clipPath id="c0ade7601f"><rect x="0" width="22" y="0" height="42"/></clipPath><clipPath id="0b14a96780"><path d="M 283.839844 316.394531 L 337.488281 316.394531 L 337.488281 337.492188 L 283.839844 337.492188 Z M 283.839844 316.394531 " clip-rule="nonzero"/></clipPath><clipPath id="0b07dc47ab"><path d="M 0.839844 0.394531 L 54.488281 0.394531 L 54.488281 21.492188 L 0.839844 21.492188 Z M 0.839844 0.394531 " clip-rule="nonzero"/></clipPath><clipPath id="955c7c97a9"><rect x="0" width="55" y="0" height="22"/></clipPath><clipPath id="4732283227"><path d="M 327.074219 296.199219 L 337.496094 296.199219 L 337.496094 333.222656 L 327.074219 333.222656 Z M 327.074219 296.199219 " clip-rule="nonzero"/></clipPath><clipPath id="b7ebeb5313"><path d="M 0.0742188 0.199219 L 10.496094 0.199219 L 10.496094 37.222656 L 0.0742188 37.222656 Z M 0.0742188 0.199219 " clip-rule="nonzero"/></clipPath><clipPath id="74d30fe50e"><rect x="0" width="11" y="0" height="38"/></clipPath><clipPath id="bd8c85fe20"><path d="M 283.851562 328.0625 L 337.5 328.0625 L 337.5 337.5 L 283.851562 337.5 Z M 283.851562 328.0625 " clip-rule="nonzero"/></clipPath><clipPath id="00d03b5b4c"><path d="M 0.851562 0.0625 L 54.5 0.0625 L 54.5 9.5 L 0.851562 9.5 Z M 0.851562 0.0625 " clip-rule="nonzero"/></clipPath><clipPath id="b20d4cd6f1"><rect x="0" width="55" y="0" height="10"/></clipPath><clipPath id="6bdf06bebd"><path d="M 37.492188 37.5 L 58.335938 37.5 L 58.335938 78.296875 L 37.492188 78.296875 Z M 37.492188 37.5 " clip-rule="nonzero"/></clipPath><clipPath id="05e2224b5f"><path d="M 0.492188 0.5 L 21.335938 0.5 L 21.335938 41.296875 L 0.492188 41.296875 Z M 0.492188 0.5 " clip-rule="nonzero"/></clipPath><clipPath id="6c8ecd793e"><rect x="0" width="22" y="0" height="42"/></clipPath><clipPath id="11f257df9c"><path d="M 37.5 37.5 L 90.496094 37.5 L 90.496094 58.34375 L 37.5 58.34375 Z M 37.5 37.5 " clip-rule="nonzero"/></clipPath><clipPath id="fa4ad184b9"><path d="M 0.5 0.5 L 53.496094 0.5 L 53.496094 21.34375 L 0.5 21.34375 Z M 0.5 0.5 " clip-rule="nonzero"/></clipPath><clipPath id="d9cf74b1ab"><rect x="0" width="54" y="0" height="22"/></clipPath><clipPath id="19e4484422"><path d="M 37.496094 41.273438 L 47.917969 41.273438 L 47.917969 78.300781 L 37.496094 78.300781 Z M 37.496094 41.273438 " clip-rule="nonzero"/></clipPath><clipPath id="82d72589ba"><path d="M 0.496094 0.273438 L 10.917969 0.273438 L 10.917969 37.300781 L 0.496094 37.300781 Z M 0.496094 0.273438 " clip-rule="nonzero"/></clipPath><clipPath id="1efa0703f2"><rect x="0" width="11" y="0" height="38"/></clipPath><clipPath id="f8d52fb350"><path d="M 37.5 37.5 L 90.496094 37.5 L 90.496094 46.9375 L 37.5 46.9375 Z M 37.5 37.5 " clip-rule="nonzero"/></clipPath><clipPath id="19bd8c8a40"><path d="M 0.5 0.5 L 53.496094 0.5 L 53.496094 9.9375 L 0.5 9.9375 Z M 0.5 0.5 " clip-rule="nonzero"/></clipPath><clipPath id="6ad32bb552"><rect x="0" width="54" y="0" height="10"/></clipPath><clipPath id="0f56f1b18d"><path d="M 63.3125 64.75 L 308.527344 64.75 L 308.527344 309.964844 L 63.3125 309.964844 Z M 63.3125 64.75 " clip-rule="nonzero"/></clipPath><clipPath id="da82348481"><path d="M 185.921875 64.75 C 118.207031 64.75 63.3125 119.640625 63.3125 187.355469 C 63.3125 255.070312 118.207031 309.964844 185.921875 309.964844 C 253.632812 309.964844 308.527344 255.070312 308.527344 187.355469 C 308.527344 119.640625 253.632812 64.75 185.921875 64.75 Z M 185.921875 64.75 " clip-rule="nonzero"/></clipPath><clipPath id="4b342448cc"><path d="M 0.3125 0.75 L 245.527344 0.75 L 245.527344 245.964844 L 0.3125 245.964844 Z M 0.3125 0.75 " clip-rule="nonzero"/></clipPath><clipPath id="6239f9612c"><path d="M 122.921875 0.75 C 55.207031 0.75 0.3125 55.640625 0.3125 123.355469 C 0.3125 191.070312 55.207031 245.964844 122.921875 245.964844 C 190.632812 245.964844 245.527344 191.070312 245.527344 123.355469 C 245.527344 55.640625 190.632812 0.75 122.921875 0.75 Z M 122.921875 0.75 " clip-rule="nonzero"/></clipPath><clipPath id="f80f2ab3b0"><rect x="0" width="246" y="0" height="246"/></clipPath><clipPath id="3a4b08f6ac"><path d="M 141.132812 147.652344 L 233.902344 147.652344 L 233.902344 227.347656 L 141.132812 227.347656 Z M 141.132812 147.652344 " clip-rule="nonzero"/></clipPath><clipPath id="360afb5569"><path d="M 233.867188 187.5 L 210.683594 227.347656 L 164.316406 227.347656 L 141.132812 187.5 L 164.316406 147.652344 L 210.683594 147.652344 Z M 233.867188 187.5 " clip-rule="nonzero"/></clipPath><clipPath id="e1c4794206"><path d="M 0.132812 0.652344 L 92.902344 0.652344 L 92.902344 80.347656 L 0.132812 80.347656 Z M 0.132812 0.652344 " clip-rule="nonzero"/></clipPath><clipPath id="a014b2e3a7"><path d="M 92.867188 40.5 L 69.683594 80.347656 L 23.316406 80.347656 L 0.132812 40.5 L 23.316406 0.652344 L 69.683594 0.652344 Z M 92.867188 40.5 " clip-rule="nonzero"/></clipPath><clipPath id="a68c864c8a"><rect x="0" width="93" y="0" height="81"/></clipPath><clipPath id="b66fc5f1ed"><path d="M 81.179688 81.179688 L 294.179688 81.179688 L 294.179688 294.179688 L 81.179688 294.179688 Z M 81.179688 81.179688 " clip-rule="nonzero"/></clipPath><clipPath id="019a4f72bd"><path d="M 59.953125 59.953125 L 314.953125 59.953125 L 314.953125 314.953125 L 59.953125 314.953125 Z M 59.953125 59.953125 " clip-rule="nonzero"/></clipPath></defs><g clip-path="url(#37a2abf879)"><g transform="matrix(1, 0, 0, 1, 316, 296)"><g clip-path="url(#c0ade7601f)"><g clip-path="url(#8848d02cae)"><path fill="#000000" d="M 0.398438 41.492188 L 0.398438 0.199219 L 21.5 0.199219 L 21.5 41.492188 Z M 0.398438 41.492188 " fill-opacity="1" fill-rule="nonzero"/></g></g></g></g><g clip-path="url(#0b14a96780)"><g transform="matrix(1, 0, 0, 1, 283, 316)"><g clip-path="url(#955c7c97a9)"><g clip-path="url(#0b07dc47ab)"><path fill="#006ad4" d="M 54.488281 21.492188 L 0.832031 21.492188 L 0.832031 0.394531 L 54.488281 0.394531 Z M 54.488281 21.492188 " fill-opacity="1" fill-rule="nonzero"/></g></g></g></g><g clip-path="url(#4732283227)"><g transform="matrix(1, 0, 0, 1, 327, 296)"><g clip-path="url(#74d30fe50e)"><g clip-path="url(#b7ebeb5313)"><path fill="#006ad4" d="M 10.496094 0.199219 L 10.496094 37.242188 L 0.0742188 37.242188 L 0.0742188 0.199219 Z M 10.496094 0.199219 " fill-opacity="1" fill-rule="nonzero"/></g></g></g></g><g clip-path="url(#bd8c85fe20)"><g transform="matrix(1, 0, 0, 1, 283, 328)"><g clip-path="url(#b20d4cd6f1)"><g clip-path="url(#00d03b5b4c)"><path fill="#000000" d="M 0.851562 0.0625 L 54.496094 0.0625 L 54.496094 9.5 L 0.851562 9.5 Z M 0.851562 0.0625 " fill-opacity="1" fill-rule="nonzero"/></g></g></g></g><g clip-path="url(#6bdf06bebd)"><g transform="matrix(1, 0, 0, 1, 37, 37)"><g clip-path="url(#6c8ecd793e)"><g clip-path="url(#05e2224b5f)"><path fill="#000000" d="M 21.335938 0.5 L 21.335938 41.289062 L 0.492188 41.289062 L 0.492188 0.5 Z M 21.335938 0.5 " fill-opacity="1" fill-rule="nonzero"/></g></g></g></g><g clip-path="url(#11f257df9c)"><g transform="matrix(1, 0, 0, 1, 37, 37)"><g clip-path="url(#d9cf74b1ab)"><g clip-path="url(#fa4ad184b9)"><path fill="#006ad4" d="M 0.5 0.5 L 53.503906 0.5 L 53.503906 21.34375 L 0.5 21.34375 Z M 0.5 0.5 " fill-opacity="1" fill-rule="nonzero"/></g></g></g></g><g clip-path="url(#19e4484422)"><g transform="matrix(1, 0, 0, 1, 37, 41)"><g clip-path="url(#1efa0703f2)"><g clip-path="url(#82d72589ba)"><path fill="#006ad4" d="M 10.917969 0.273438 L 10.917969 37.320312 L 0.496094 37.320312 L 0.496094 0.273438 Z M 10.917969 0.273438 " fill-opacity="1" fill-rule="nonzero"/></g></g></g></g><g clip-path="url(#f8d52fb350)"><g transform="matrix(1, 0, 0, 1, 37, 37)"><g clip-path="url(#6ad32bb552)"><g clip-path="url(#19bd8c8a40)"><path fill="#000000" d="M 0.5 0.5 L 53.480469 0.5 L 53.480469 9.9375 L 0.5 9.9375 Z M 0.5 0.5 " fill-opacity="1" fill-rule="nonzero"/></g></g></g></g><g clip-path="url(#0f56f1b18d)"><g clip-path="url(#da82348481)"><g transform="matrix(1, 0, 0, 1, 63, 64)"><g clip-path="url(#f80f2ab3b0)"><g clip-path="url(#4b342448cc)"><g clip-path="url(#6239f9612c)"><path fill="#006ad4" d="M 0.3125 0.75 L 245.527344 0.75 L 245.527344 245.964844 L 0.3125 245.964844 Z M 0.3125 0.75 " fill-opacity="1" fill-rule="nonzero"/></g></g></g></g></g></g><g clip-path="url(#3a4b08f6ac)"><g clip-path="url(#360afb5569)"><g transform="matrix(1, 0, 0, 1, 141, 147)"><g clip-path="url(#a68c864c8a)"><g clip-path="url(#e1c4794206)"><g clip-path="url(#a014b2e3a7)"><path fill="#000000" d="M 0.132812 0.652344 L 92.902344 0.652344 L 92.902344 80.347656 L 0.132812 80.347656 Z M 0.132812 0.652344 " fill-opacity="1" fill-rule="nonzero"/></g></g></g></g></g></g><g clip-path="url(#b66fc5f1ed)"><path fill="#000000" d="M 187.679688 294.179688 C 182.8125 294.179688 177.941406 293.929688 173.199219 293.179688 C 172.824219 293.179688 172.574219 293.179688 172.199219 293.058594 C 134.492188 287.5625 103.03125 262.21875 89.046875 227.882812 C 88.921875 227.632812 88.796875 227.257812 88.671875 227.007812 C 83.800781 214.773438 81.179688 201.539062 81.179688 187.679688 C 81.179688 163.210938 89.421875 140.609375 103.402344 122.632812 C 103.652344 122.132812 103.902344 121.757812 104.402344 121.382812 C 123.878906 96.910156 153.96875 81.179688 187.679688 81.179688 C 198.417969 81.179688 208.78125 82.804688 218.644531 85.675781 C 218.894531 85.800781 219.144531 85.925781 219.394531 85.925781 C 249.855469 95.539062 274.328125 118.261719 286.316406 147.476562 C 286.4375 147.726562 286.5625 148.101562 286.6875 148.351562 C 291.558594 160.585938 294.179688 173.820312 294.179688 187.679688 C 294.179688 212.152344 285.941406 234.75 271.957031 252.855469 C 271.707031 253.226562 271.457031 253.601562 271.082031 253.851562 C 251.605469 278.449219 221.390625 294.179688 187.679688 294.179688 Z M 139.984375 189.804688 L 106.652344 132.121094 C 95.789062 147.976562 89.421875 167.078125 89.421875 187.679688 C 89.421875 199.667969 91.667969 211.152344 95.539062 221.765625 L 158.339844 221.765625 Z M 112.144531 125.003906 L 143.480469 179.316406 L 161.960938 147.476562 C 162.085938 147.226562 162.210938 147.101562 162.335938 146.851562 L 162.460938 146.851562 L 162.460938 146.726562 L 210.277344 92.042969 C 203.039062 90.417969 195.421875 89.421875 187.679688 89.421875 C 157.339844 89.421875 130.121094 103.28125 112.144531 125.003906 Z M 165.582031 230.003906 L 99.035156 230.003906 C 112.644531 258.222656 139.238281 279.074219 171.074219 284.441406 L 202.539062 230.003906 Z M 213.398438 227.882812 L 213.398438 228.007812 L 180.0625 285.566406 C 182.5625 285.816406 185.183594 285.941406 187.679688 285.941406 C 218.019531 285.941406 245.238281 272.082031 263.214844 250.355469 L 231.878906 196.046875 Z M 235.5 185.683594 L 268.710938 243.238281 C 279.574219 227.382812 285.941406 208.28125 285.941406 187.679688 C 285.941406 175.695312 283.691406 164.207031 279.820312 153.59375 L 216.894531 153.59375 L 235.375 185.558594 Z M 209.78125 145.355469 L 276.328125 145.355469 C 264.839844 121.632812 244.238281 103.15625 219.144531 94.664062 L 174.820312 145.355469 Z M 167.953125 221.765625 L 207.28125 221.765625 L 227.007812 187.679688 L 207.28125 153.59375 L 167.953125 153.59375 L 148.351562 187.679688 Z M 167.953125 221.765625 " fill-opacity="1" fill-rule="evenodd"/></g><g clip-path="url(#019a4f72bd)"><path fill="#000000" d="M 187.453125 59.953125 C 117.082031 59.953125 59.953125 117.082031 59.953125 187.453125 C 59.953125 257.828125 117.082031 314.953125 187.453125 314.953125 C 257.828125 314.953125 314.953125 257.828125 314.953125 187.453125 C 314.953125 117.082031 257.828125 59.953125 187.453125 59.953125 Z M 187.453125 67.039062 C 254 67.039062 307.871094 120.910156 307.871094 187.453125 C 307.871094 254 254 307.871094 187.453125 307.871094 C 120.910156 307.871094 67.039062 254 67.039062 187.453125 C 67.039062 120.910156 120.910156 67.039062 187.453125 67.039062 Z M 187.453125 67.039062 " fill-opacity="1" fill-rule="nonzero"/></g></svg>