<svg xmlns="http://www.w3.org/2000/svg" xmlns:xlink="http://www.w3.org/1999/xlink" width="500" zoomAndPan="magnify" viewBox="0 0 375 374.999991" height="500" preserveAspectRatio="xMidYMid meet" version="1.0"><defs><g/><clipPath id="d8dab9f761"><rect x="0" width="71" y="0" height="148"/></clipPath><clipPath id="2a46643591"><rect x="0" width="90" y="0" height="148"/></clipPath><clipPath id="e0641832a0"><rect x="0" width="92" y="0" height="133"/></clipPath><clipPath id="05ef21c05c"><rect x="0" width="71" y="0" height="148"/></clipPath><clipPath id="09f188e872"><rect x="0" width="90" y="0" height="148"/></clipPath><clipPath id="70ebd65db2"><rect x="0" width="92" y="0" height="133"/></clipPath></defs><g transform="matrix(1, 0, 0, 1, 140, 23)"><g clip-path="url(#d8dab9f761)"><g fill="#000000" fill-opacity="1"><g transform="translate(1.206065, 106.327436)"><g><path d="M 62.359375 -96.703125 L 62.359375 -77.359375 L 29.0625 -77.359375 L 29.0625 -58.140625 L 60.953125 -58.140625 L 60.953125 -38.796875 L 29.0625 -38.796875 L 29.0625 -19.34375 L 62.359375 -19.34375 L 62.359375 0 L 7.03125 0 L 7.03125 -96.703125 Z M 62.359375 -96.703125 "/></g></g></g></g></g><g transform="matrix(1, 0, 0, 1, 139, 132)"><g clip-path="url(#2a46643591)"><g fill="#000000" fill-opacity="1"><g transform="translate(2.366042, 106.195685)"><g><path d="M 7.03125 -96.703125 L 35.046875 -96.703125 C 48.484375 -96.703125 59.96875 -92.109375 69.5 -82.921875 C 79.039062 -73.742188 83.8125 -62.238281 83.8125 -48.40625 C 83.8125 -34.5 79.0625 -22.953125 69.5625 -13.765625 C 60.070312 -4.585938 48.566406 0 35.046875 0 L 7.03125 0 Z M 29.0625 -19.6875 L 32.46875 -19.6875 C 40.519531 -19.6875 47.101562 -22.398438 52.21875 -27.828125 C 57.34375 -33.265625 59.941406 -40.085938 60.015625 -48.296875 C 60.015625 -56.503906 57.453125 -63.34375 52.328125 -68.8125 C 47.210938 -74.28125 40.59375 -77.015625 32.46875 -77.015625 L 29.0625 -77.015625 Z M 29.0625 -19.6875 "/></g></g></g></g></g><g transform="matrix(1, 0, 0, 1, 139, 242)"><g clip-path="url(#e0641832a0)"><g fill="#000000" fill-opacity="1"><g transform="translate(1.432667, 106.048251)"><g><path d="M 7.03125 -96.703125 L 41.609375 -96.703125 C 50.910156 -96.703125 58.488281 -94.21875 64.34375 -89.25 C 70.207031 -84.289062 73.140625 -77.203125 73.140625 -67.984375 C 73.140625 -60.867188 71.363281 -54.910156 67.8125 -50.109375 C 64.257812 -45.304688 59.429688 -41.925781 53.328125 -39.96875 L 86.625 0 L 58.609375 0 L 29.0625 -38.21875 L 29.0625 0 L 7.03125 0 Z M 29.0625 -53.796875 L 31.65625 -53.796875 C 33.6875 -53.796875 35.40625 -53.832031 36.8125 -53.90625 C 38.21875 -53.988281 39.816406 -54.265625 41.609375 -54.734375 C 43.410156 -55.203125 44.859375 -55.863281 45.953125 -56.71875 C 47.046875 -57.582031 47.984375 -58.835938 48.765625 -60.484375 C 49.546875 -62.128906 49.9375 -64.125 49.9375 -66.46875 C 49.9375 -68.8125 49.546875 -70.800781 48.765625 -72.4375 C 47.984375 -74.082031 47.046875 -75.332031 45.953125 -76.1875 C 44.859375 -77.050781 43.410156 -77.71875 41.609375 -78.1875 C 39.816406 -78.65625 38.21875 -78.925781 36.8125 -79 C 35.40625 -79.082031 33.6875 -79.125 31.65625 -79.125 L 29.0625 -79.125 Z M 29.0625 -53.796875 "/></g></g></g></g></g><g transform="matrix(1, 0, 0, 1, 133, 23)"><g clip-path="url(#05ef21c05c)"><g fill="#ffffff" fill-opacity="1"><g transform="translate(0.859085, 106.327436)"><g><path d="M 62.359375 -96.703125 L 62.359375 -77.359375 L 29.0625 -77.359375 L 29.0625 -58.140625 L 60.953125 -58.140625 L 60.953125 -38.796875 L 29.0625 -38.796875 L 29.0625 -19.34375 L 62.359375 -19.34375 L 62.359375 0 L 7.03125 0 L 7.03125 -96.703125 Z M 62.359375 -96.703125 "/></g></g></g></g></g><g transform="matrix(1, 0, 0, 1, 132, 132)"><g clip-path="url(#09f188e872)"><g fill="#ffffff" fill-opacity="1"><g transform="translate(2.019088, 106.195685)"><g><path d="M 7.03125 -96.703125 L 35.046875 -96.703125 C 48.484375 -96.703125 59.96875 -92.109375 69.5 -82.921875 C 79.039062 -73.742188 83.8125 -62.238281 83.8125 -48.40625 C 83.8125 -34.5 79.0625 -22.953125 69.5625 -13.765625 C 60.070312 -4.585938 48.566406 0 35.046875 0 L 7.03125 0 Z M 29.0625 -19.6875 L 32.46875 -19.6875 C 40.519531 -19.6875 47.101562 -22.398438 52.21875 -27.828125 C 57.34375 -33.265625 59.941406 -40.085938 60.015625 -48.296875 C 60.015625 -56.503906 57.453125 -63.34375 52.328125 -68.8125 C 47.210938 -74.28125 40.59375 -77.015625 32.46875 -77.015625 L 29.0625 -77.015625 Z M 29.0625 -19.6875 "/></g></g></g></g></g><g transform="matrix(1, 0, 0, 1, 132, 242)"><g clip-path="url(#70ebd65db2)"><g fill="#ffffff" fill-opacity="1"><g transform="translate(1.085713, 106.048251)"><g><path d="M 7.03125 -96.703125 L 41.609375 -96.703125 C 50.910156 -96.703125 58.488281 -94.21875 64.34375 -89.25 C 70.207031 -84.289062 73.140625 -77.203125 73.140625 -67.984375 C 73.140625 -60.867188 71.363281 -54.910156 67.8125 -50.109375 C 64.257812 -45.304688 59.429688 -41.925781 53.328125 -39.96875 L 86.625 0 L 58.609375 0 L 29.0625 -38.21875 L 29.0625 0 L 7.03125 0 Z M 29.0625 -53.796875 L 31.65625 -53.796875 C 33.6875 -53.796875 35.40625 -53.832031 36.8125 -53.90625 C 38.21875 -53.988281 39.816406 -54.265625 41.609375 -54.734375 C 43.410156 -55.203125 44.859375 -55.863281 45.953125 -56.71875 C 47.046875 -57.582031 47.984375 -58.835938 48.765625 -60.484375 C 49.546875 -62.128906 49.9375 -64.125 49.9375 -66.46875 C 49.9375 -68.8125 49.546875 -70.800781 48.765625 -72.4375 C 47.984375 -74.082031 47.046875 -75.332031 45.953125 -76.1875 C 44.859375 -77.050781 43.410156 -77.71875 41.609375 -78.1875 C 39.816406 -78.65625 38.21875 -78.925781 36.8125 -79 C 35.40625 -79.082031 33.6875 -79.125 31.65625 -79.125 L 29.0625 -79.125 Z M 29.0625 -53.796875 "/></g></g></g></g></g></svg>